<svg width="17" height="16" viewBox="0 0 17 16" fill="none" xmlns="http://www.w3.org/2000/svg">
<path fill-rule="evenodd" clip-rule="evenodd" d="M15.5948 15.1508C15.2042 15.5413 14.5711 15.5413 14.1805 15.1508L1.03784 2.0081C0.647314 1.61758 0.647313 0.984413 1.03784 0.593888V0.593888C1.42836 0.203363 2.06153 0.203362 2.45205 0.593885L15.5948 13.7365C15.9853 14.1271 15.9853 14.7602 15.5948 15.1508V15.1508Z" fill="white"/>
<path fill-rule="evenodd" clip-rule="evenodd" d="M1.03767 15.1508C1.4282 15.5413 2.06136 15.5413 2.45189 15.1508L15.5946 2.0081C15.9851 1.61758 15.9851 0.984413 15.5946 0.593888V0.593888C15.2041 0.203363 14.5709 0.203362 14.1804 0.593886L1.03767 13.7365C0.64715 14.1271 0.647148 14.7602 1.03767 15.1508V15.1508Z" fill="white"/>
</svg>
